<?xml version="1.0" encoding="UTF-8"?>
<svg xmlns="http://www.w3.org/2000/svg" xmlns:xlink="http://www.w3.org/1999/xlink" viewBox="0 0 60 60" width="60px" height="60px">
<g id="surface237978178">
<path style=" stroke:none;fill-rule:nonzero;fill:rgb(6.666667%,27.843139%,67.058825%);fill-opacity:1;" d="M 22.363281 7.484375 L 22.363281 49.714844 L 31.523438 52.515625 L 31.523438 17.152344 C 31.523438 16.132812 31.523438 15.628906 32.03125 15.117188 C 32.285156 14.609375 32.792969 14.609375 33.300781 14.863281 C 34.574219 15.371094 35.339844 16.390625 35.339844 18.425781 L 35.339844 32.414062 C 38.390625 33.941406 40.933594 33.941406 42.96875 32.414062 C 45.003906 30.886719 46.023438 28.601562 46.023438 24.785156 C 46.027344 20.714844 45.261719 18.171875 43.480469 16.136719 C 41.953125 14.101562 39.15625 12.320312 35.085938 11.046875 C 29.996094 9.519531 25.671875 8.25 22.363281 7.484375 Z M 19.820312 33.945312 L 8.117188 38.015625 L 6.339844 38.777344 C 3.542969 40.050781 2.015625 41.320312 2.015625 42.59375 C 2.269531 44.121094 2.777344 46.15625 6.59375 47.429688 C 10.15625 48.703125 12.953125 49.210938 20.078125 47.175781 L 20.078125 42.59375 C 13.207031 44.882812 12.191406 44.628906 11.171875 44.121094 C 10.152344 43.613281 10.152344 43.101562 10.40625 42.847656 C 11.171875 42.339844 13.96875 41.320312 13.96875 41.320312 L 19.820312 39.285156 Z M 45.707031 35.925781 C 44.878906 35.898438 44.054688 35.914062 43.226562 35.976562 C 40.429688 35.976562 37.882812 36.484375 34.828125 37.25 L 34.828125 42.59375 L 40.425781 40.554688 L 43.476562 39.539062 C 43.476562 39.539062 44.75 39.285156 45.515625 39.03125 C 46.789062 38.777344 48.3125 39.285156 48.3125 39.285156 C 49.078125 39.285156 49.585938 39.535156 49.585938 40.046875 C 49.839844 40.554688 49.332031 40.8125 48.058594 41.320312 L 45.261719 42.339844 L 35.085938 46.152344 L 35.085938 51.496094 L 39.664062 49.96875 L 52.382812 45.390625 L 53.910156 44.625 C 56.960938 43.605469 58.234375 42.335938 57.980469 40.808594 C 57.980469 39.285156 56.199219 38.269531 53.148438 37.25 C 50.667969 36.488281 48.1875 36.007812 45.707031 35.925781 Z M 45.707031 35.925781 "/>
</g>
</svg>
